<?xml version="1.0" encoding="UTF-8"?> <svg xmlns="http://www.w3.org/2000/svg" width="108" height="35" viewBox="0 0 108 35" fill="none"><g id="a2say"><path d="M11.1236 7.53588C13.5435 7.53588 15.4039 8.03828 16.7049 9.04306C18.0059 10.0478 18.6564 11.8642 18.6564 14.4921V27.1292H14.0899L13.4654 24.1148C12.7628 24.9135 11.8131 25.6864 10.6162 26.4336C9.41927 27.1807 7.94913 27.5543 6.20579 27.5543C4.46244 27.5543 2.99231 27.1034 1.79539 26.2017C0.598462 25.3 0 23.9603 0 22.1826V20.2116C0 18.6916 0.520402 17.5064 1.5612 16.6562C2.60201 15.806 4.03311 15.3809 5.85452 15.3809H12.8799V14.4921C12.8539 13.5646 12.6197 12.9076 12.1774 12.5212C11.7611 12.1089 10.9675 11.9028 9.79656 11.9028C8.78178 11.9028 7.53281 11.9415 6.04967 12.0188C4.56652 12.0703 3.04435 12.1476 1.48314 12.2506L0.975753 8.46338C1.88646 8.3088 2.94027 8.1671 4.13719 8.03828C5.36014 7.8837 6.58308 7.76776 7.80602 7.69047C9.02897 7.58741 10.1348 7.53588 11.1236 7.53588ZM8.00117 23.4192C8.70372 23.4192 9.48432 23.2646 10.343 22.9555C11.2277 22.6205 12.0733 22.1697 12.8799 21.6029V18.5885H7.6499C6.94736 18.6143 6.43997 18.7946 6.12773 19.1296C5.84151 19.4645 5.6984 19.9153 5.6984 20.4822V21.4096C5.6984 22.7494 6.46599 23.4192 8.00117 23.4192Z" fill="#632020"></path><path d="M31.9007 0C33.7481 0 35.3484 0.167464 36.7014 0.502393C38.0805 0.811556 39.1473 1.417 39.9019 2.31873C40.6565 3.22046 41.0338 4.50865 41.0338 6.18329C41.0338 7.21384 40.9037 8.1671 40.6435 9.04306C40.4093 9.89326 39.9669 10.7821 39.3164 11.7096C38.692 12.6371 37.7813 13.7321 36.5843 14.9945L29.5199 22.2212C30.1704 22.1181 30.8209 22.0537 31.4714 22.028C32.1479 21.9764 32.8244 21.9507 33.5009 21.9507H41.8144V27.1292H22.5335V23.9603C22.5335 23.4965 22.5985 23.0714 22.7286 22.6849C22.8587 22.2985 23.0799 21.9249 23.3922 21.5642L30.1053 14.4534C31.6926 12.8303 32.9025 11.3876 33.7351 10.1251C34.5678 8.86272 34.9711 7.75488 34.9451 6.80162C34.919 5.97718 34.5938 5.46191 33.9693 5.2558C33.3709 5.04969 32.4601 4.94663 31.2372 4.94663C30.3265 4.94663 29.4678 4.95952 28.6612 4.98528C27.8806 5.01104 27.048 5.04969 26.1633 5.10121C25.2786 5.12698 24.2378 5.19139 23.0409 5.29444L22.7677 0.927493C24.6932 0.541038 26.3454 0.296283 27.7245 0.193228C29.1296 0.0644092 30.5217 0 31.9007 0Z" fill="#632020"></path><path d="M53.1743 7.53588C54.111 7.56165 55.1258 7.60029 56.2186 7.65182C57.3115 7.70335 58.3783 7.78064 59.4191 7.8837C60.4599 7.98675 61.3836 8.11557 62.1902 8.27015L61.7999 11.8255C60.551 11.7998 59.289 11.774 58.014 11.7483C56.739 11.7225 55.5161 11.7096 54.3452 11.7096C52.81 11.7096 51.7822 11.774 51.2618 11.9028C50.7674 12.0317 50.5202 12.4439 50.5202 13.1395C50.5202 13.7578 50.7024 14.1572 51.0666 14.3375C51.4569 14.5179 52.1204 14.724 53.0572 14.9558L58.0921 16.1538C59.7053 16.5661 60.9022 17.1844 61.6828 18.0088C62.4634 18.8075 62.8537 20.0184 62.8537 21.6415C62.8537 23.2389 62.5415 24.4626 61.917 25.3128C61.3185 26.163 60.3688 26.7556 59.0678 27.0905C57.7928 27.3997 56.1275 27.5543 54.072 27.5543C53.2653 27.5543 52.0684 27.5156 50.4812 27.4384C48.894 27.3611 47.1636 27.1678 45.2902 26.8587L45.6415 23.3033C46.37 23.3548 47.3458 23.3934 48.5687 23.4192C49.8177 23.4192 51.0927 23.4063 52.3937 23.3806C53.7207 23.3806 54.7355 23.3548 55.438 23.3033C56.1406 23.226 56.6219 23.0714 56.8821 22.8395C57.1683 22.6077 57.3115 22.2598 57.3115 21.7961C57.3115 21.2035 57.0903 20.8171 56.6479 20.6367C56.2056 20.4306 55.5031 20.1987 54.5403 19.9411L49.6616 18.7431C47.8141 18.2536 46.5652 17.558 45.9147 16.6562C45.2642 15.7287 44.9389 14.4921 44.9389 12.9463C44.9389 10.9882 45.5504 9.59698 46.7733 8.77254C48.0223 7.9481 50.1559 7.53588 53.1743 7.53588Z" fill="#632020"></path><path d="M76.7201 7.53588C79.14 7.53588 81.0004 8.03828 82.3014 9.04306C83.6024 10.0478 84.2529 11.8642 84.2529 14.4921V27.1292H79.6864L79.0619 24.1148C78.3594 24.9135 77.4096 25.6864 76.2127 26.4336C75.0158 27.1807 73.5456 27.5543 71.8023 27.5543C70.059 27.5543 68.5888 27.1034 67.3919 26.2017C66.195 25.3 65.5965 23.9603 65.5965 22.1826V20.2116C65.5965 18.6916 66.1169 17.5064 67.1577 16.6562C68.1985 15.806 69.6296 15.3809 71.451 15.3809H78.4764V14.4921C78.4504 13.5646 78.2163 12.9076 77.7739 12.5212C77.3576 12.1089 76.564 11.9028 75.3931 11.9028C74.3783 11.9028 73.1293 11.9415 71.6462 12.0188C70.163 12.0703 68.6409 12.1476 67.0797 12.2506L66.5723 8.46338C67.483 8.3088 68.5368 8.1671 69.7337 8.03828C70.9566 7.8837 72.1796 7.76776 73.4025 7.69047C74.6255 7.58741 75.7313 7.53588 76.7201 7.53588ZM73.5977 23.4192C74.3002 23.4192 75.0808 23.2646 75.9395 22.9555C76.8242 22.6205 77.6698 22.1697 78.4764 21.6029V18.5885H73.2464C72.5439 18.6143 72.0365 18.7946 71.7242 19.1296C71.438 19.4645 71.2949 19.9153 71.2949 20.4822V21.4096C71.2949 22.7494 72.0625 23.4192 73.5977 23.4192Z" fill="#632020"></path><path d="M92.7002 8.03828L96.369 20.4049C96.4731 20.8944 96.5772 21.3839 96.6813 21.8734C96.7853 22.3629 96.8764 22.8524 96.9545 23.3419H97.4228C97.5789 22.8524 97.7221 22.35 97.8522 21.8347C97.9823 21.2937 98.1124 20.8171 98.2425 20.4049L101.872 8.03828H108L101.092 27.3611C100.779 28.3143 100.337 29.2676 99.7646 30.2208C99.2182 31.1999 98.5157 32.0758 97.657 32.8487C96.8244 33.6216 95.8096 34.2013 94.6127 34.5878C93.4418 35 92.0497 35.1031 90.4364 34.8969L90.0071 31.6507C91.5943 31.2385 92.8303 30.6846 93.715 29.989C94.5997 29.2933 95.2892 28.3787 95.7836 27.2451L95.8616 27.1292H94.7688C93.78 27.1292 93.1555 26.6654 92.8953 25.7379L86.5725 8.03828H92.7002Z" fill="#632020"></path></g></svg> 